<svg width="1200" height="750" viewBox="0 0 1200 750" fill="none" xmlns="http://www.w3.org/2000/svg" role="img" aria-labelledby="title desc">
  <title id="title">Project Three thumbnail</title>
  <desc id="desc">MDX content system diagram with metadata, content, and rendered detail page.</desc>
  <rect width="1200" height="750" fill="#FFF8EB"/>
  <rect x="92" y="92" width="322" height="566" rx="18" fill="#1F2426"/>
  <rect x="452" y="92" width="296" height="566" rx="18" fill="#F7F4EE" stroke="#D9D0BF" stroke-width="4"/>
  <rect x="786" y="92" width="322" height="566" rx="18" fill="#FFFDF7" stroke="#D9D0BF" stroke-width="4"/>
  <path d="M156 176H320" stroke="#FFF8EB" stroke-width="14" stroke-linecap="round"/>
  <path d="M156 226H354" stroke="#D5A849" stroke-width="14" stroke-linecap="round"/>
  <path d="M156 276H280" stroke="#B45F3A" stroke-width="14" stroke-linecap="round"/>
  <path d="M512 182H676" stroke="#146C64" stroke-width="14" stroke-linecap="round"/>
  <path d="M512 236H688" stroke="#6F756F" stroke-width="12" stroke-linecap="round"/>
  <path d="M512 286H650" stroke="#6F756F" stroke-width="12" stroke-linecap="round"/>
  <rect x="512" y="356" width="176" height="168" rx="12" fill="#D5A849"/>
  <path d="M852 176H1036" stroke="#1F2426" stroke-width="14" stroke-linecap="round"/>
  <path d="M852 226H990" stroke="#146C64" stroke-width="12" stroke-linecap="round"/>
  <rect x="852" y="302" width="190" height="54" rx="10" fill="#E8D8BD"/>
  <rect x="852" y="390" width="190" height="54" rx="10" fill="#DCE7DF"/>
  <rect x="852" y="478" width="190" height="54" rx="10" fill="#F0D4C4"/>
  <path d="M414 376H452" stroke="#146C64" stroke-width="8" stroke-linecap="round"/>
  <path d="M748 376H786" stroke="#146C64" stroke-width="8" stroke-linecap="round"/>
</svg>
